<svg width="86" height="14" viewBox="0 0 86 14" fill="none" xmlns="http://www.w3.org/2000/svg">
<path fill-rule="evenodd" clip-rule="evenodd" d="M54.6216 1.99893C54.6882 1.18389 54.022 0.50469 53.2225 0.50469C52.423 0.43677 51.7567 1.11597 51.7567 1.93101C51.7567 2.74606 52.3564 3.42526 53.1559 3.42526C53.9554 3.49318 54.6216 2.81398 54.6216 1.99893ZM6.73451 2.73784C6.54209 2.68498 6.26219 2.6495 6.0523 2.6495C5.49251 2.6495 5.05525 2.80844 4.77535 3.14359C4.58293 3.39052 4.46051 3.70804 4.46051 4.50204V4.76658H7.08429V6.7071H4.46051V13.3228H2.1864V6.7071H0V4.76658H2.1864V4.4137C2.1864 3.03775 2.50136 2.20851 3.09609 1.62632C3.69083 1.04425 4.58293 0.620761 5.73746 0.620761C6.19231 0.620761 6.61209 0.656121 7.08429 0.779584L6.73451 2.73784ZM17.9407 6.72941C18.8053 6.72941 19.5487 7.15034 20.0156 7.78186V10.3252C19.5834 10.9568 18.8397 11.3777 17.9925 11.3777C16.7303 11.3777 15.7793 10.3954 15.7793 9.06231C15.7793 7.83442 16.6266 6.72941 17.9407 6.72941ZM20.102 13.3072H22.2634V4.79992H20.102V5.48412C19.445 4.94031 18.5978 4.6245 17.6468 4.6245C15.3643 4.6245 13.5316 6.55398 13.5316 9.06231C13.5316 10.22 13.9464 11.2725 14.6035 12.0441C15.3471 12.9213 16.5229 13.4825 17.7678 13.4825C18.615 13.4825 19.4103 13.2195 20.102 12.623V13.3072ZM48.4728 7.95722C48.4033 7.20294 47.7262 6.46629 46.8061 6.46629C45.8686 6.46629 45.1048 7.18542 45.0005 7.95722H48.4728ZM50.5735 11.9565C49.7575 12.9388 48.4207 13.4825 47.1186 13.4825C44.6012 13.4825 42.7089 11.7284 42.7089 9.06225C42.7089 6.69428 44.3061 4.6245 46.8061 4.6245C49.1324 4.6245 50.7817 6.60656 50.7817 8.97441C50.7817 9.20264 50.7644 9.43063 50.7297 9.62358H44.8964C45.0179 10.8163 45.9729 11.6408 47.1707 11.6408C48.1255 11.6408 48.8894 11.0969 49.2887 10.6584L50.5735 11.9565ZM24.0536 13.3228V4.80741H26.2417V5.49215C26.8895 4.96559 27.6947 4.63192 28.6398 4.63192C29.8128 4.63192 30.8805 5.15872 31.5807 6.00129C32.1409 6.66861 32.4559 7.52884 32.4559 8.986V13.3228H30.1803V8.81052C30.1803 7.96783 29.9878 7.52884 29.6727 7.21283C29.3751 6.91447 28.9199 6.73876 28.3948 6.73876C27.432 6.73876 26.6444 7.35335 26.3293 7.79235V13.3228H24.0536ZM42.1762 11.578C41.1785 12.9111 39.918 13.4899 38.3252 13.4899C35.6995 13.4899 33.7739 11.5254 33.7739 9.06968C33.7739 6.59647 35.752 4.63192 38.3426 4.63192C39.813 4.63192 41.1258 5.31589 41.9136 6.33344L40.3032 7.75418C39.8481 7.1578 39.1654 6.73675 38.3426 6.73675C37.0298 6.73675 36.0495 7.7717 36.0495 9.06968C36.0495 10.4028 37.0123 11.3851 38.3952 11.3851C39.3229 11.3851 40.0581 10.8238 40.4258 10.2625L42.1762 11.578ZM12.2904 6.73876C12.6136 6.73876 12.9366 6.77395 13.0897 6.82656L13.3448 4.70207L13.2616 4.68956C13.0602 4.65905 12.8812 4.63192 12.5965 4.63192C11.5932 4.63192 10.6918 5.03573 10.1988 5.66775V4.80741H8.0728V13.3228H10.2837V7.96772C10.5558 7.45857 11.3211 6.73876 12.2904 6.73876ZM56.1801 4.80741V13.3228H58.4557V7.79235C58.7709 7.35335 59.5585 6.73876 60.5213 6.73876C61.0464 6.73876 61.5016 6.91448 61.7991 7.21283C62.1142 7.52884 62.3068 7.96783 62.3068 8.81052V13.3228H64.5824V8.986C64.5824 7.52884 64.2673 6.66861 63.7071 6.00129C63.0069 5.15872 61.9392 4.63192 60.7663 4.63192C59.8211 4.63192 59.0159 4.96559 58.3682 5.49215V4.80741H56.1801ZM71.8111 2.73784C71.6187 2.68498 71.3388 2.6495 71.1289 2.6495C70.5691 2.6495 70.1319 2.80844 69.852 3.14359C69.6596 3.39052 69.5371 3.70804 69.5371 4.50204V4.76658H72.1609V6.7071H69.5371V13.3228H67.263V6.7071H65.0766V4.76658H67.263V4.4137C67.263 3.03775 67.578 2.20851 68.1727 1.62632C68.7675 1.04425 69.6596 0.620761 70.8141 0.620761C71.2689 0.620761 71.6887 0.656121 72.1609 0.779584L71.8111 2.73784ZM52.0613 13.3213H54.3266V4.80626H52.0613V13.3213ZM81.0221 9.16506C81.0875 6.6985 79.1911 4.69859 76.7716 4.63192H76.6408C74.2867 4.69859 72.3249 6.63183 72.3249 9.09839C72.3249 11.4983 74.2213 13.4315 76.5754 13.4982C78.9949 13.5649 80.9567 11.6316 81.0221 9.16506ZM78.9538 9.11236C78.9879 7.83482 78.0008 6.79897 76.7415 6.76444H76.6734C75.4481 6.79897 74.427 7.80029 74.427 9.07784C74.427 10.3209 75.4141 11.3222 76.6394 11.3567C77.8987 11.3912 78.9198 10.3899 78.9538 9.11236Z" fill="white"/>
<path fill-rule="evenodd" clip-rule="evenodd" d="M83.0463 6.12383C83.0463 6.96924 83.7064 7.6168 84.5229 7.6168C85.3393 7.6168 85.9995 6.96924 85.9995 6.12383C85.9995 5.27841 85.3393 4.63086 84.5229 4.63086C83.7064 4.63086 83.0463 5.27841 83.0463 6.12383ZM84.5229 13.4993C83.7064 13.4993 83.0463 12.8517 83.0463 12.0063C83.0463 11.1609 83.7064 10.5134 84.5229 10.5134C85.3393 10.5134 85.9995 11.1609 85.9995 12.0063C85.9995 12.8517 85.3393 13.4993 84.5229 13.4993Z" fill="#FFC300"/>
</svg>
