<svg width="24" height="24" viewBox="0 0 24 24" fill="none" xmlns="http://www.w3.org/2000/svg">
<mask id="mask0_10_8134" style="mask-type:luminance" maskUnits="userSpaceOnUse" x="4" y="5" width="16" height="14">
<path fill-rule="evenodd" clip-rule="evenodd" d="M4 6.5C4 6.08579 4.33579 5.75 4.75 5.75H19.25C19.6642 5.75 20 6.08579 20 6.5C20 6.91421 19.6642 7.25 19.25 7.25L4.75 7.25C4.33579 7.25 4 6.91421 4 6.5ZM4 17.5C4 17.0858 4.33579 16.75 4.75 16.75L19.25 16.75C19.6642 16.75 20 17.0858 20 17.5C20 17.9142 19.6642 18.25 19.25 18.25L4.75 18.25C4.33579 18.25 4 17.9142 4 17.5ZM19.25 12.75C19.6642 12.75 20 12.4142 20 12C20 11.5858 19.6642 11.25 19.25 11.25L4.75 11.25C4.33579 11.25 4 11.5858 4 12C4 12.4142 4.33579 12.75 4.75 12.75L19.25 12.75Z" fill="white"/>
</mask>
<g mask="url(#mask0_10_8134)">
<rect width="24" height="24" fill="white"/>
</g>
</svg>
