<svg width="16" height="14" viewBox="0 0 16 14" fill="none" xmlns="http://www.w3.org/2000/svg">
<path d="M1.94973 3.48959L2.85556 4.34714M4.77497 1.79648L5.23786 2.94428M13.8423 3.48959L12.9369 4.34714M11.017 1.79648L10.5546 2.94428M8.00025 1L8.0611 2.67211M1 8.87629C1 8.87629 7.60071 -0.0974712 15 8.88899C7.10988 18.1462 1 8.87629 1 8.87629ZM10.5407 8.94519C10.5407 10.3196 9.40329 11.4338 8.00025 11.4338C6.59722 11.4338 5.45983 10.3196 5.45983 8.94519C5.45983 7.57077 6.59722 6.45658 8.00025 6.45658C9.40329 6.45658 10.5407 7.57077 10.5407 8.94519Z" stroke="#B9B9B9" stroke-miterlimit="10" stroke-linecap="round"/>
</svg>
