<svg width="16" height="16" viewBox="0 0 16 16" fill="none" xmlns="http://www.w3.org/2000/svg">
<path fill-rule="evenodd" clip-rule="evenodd" d="M4.60969 3.83343C4.07588 4.45126 3.90001 5.1976 3.90001 5.66745V12.6674C3.90001 13.054 3.58661 13.3674 3.20001 13.3674C3.12254 13.3674 3.04801 13.3549 2.97835 13.3316C2.47503 13.2909 1.8293 13.1094 1.26948 12.6728C0.591507 12.1439 0.100006 11.2862 0.100006 10.0408C0.100006 8.84029 0.491074 7.99319 1.07166 7.44976C1.52521 7.02523 2.0549 6.82376 2.50001 6.76216V5.66745C2.50001 4.91507 2.76413 3.82808 3.55033 2.91814C4.35841 1.98286 5.66094 1.30078 7.60001 1.30078C9.53908 1.30078 10.8416 1.98286 11.6497 2.91814C12.4359 3.82808 12.7 4.91507 12.7 5.66745V6.78605C13.0996 6.88043 13.5364 7.06139 13.9305 7.36883C14.6085 7.89765 15.1 8.75535 15.1 10.0008C15.1 11.2013 14.7089 12.0484 14.1284 12.5918C13.5673 13.117 12.8898 13.3008 12.4 13.3008V13.242C12.2866 13.3211 12.1487 13.3674 12 13.3674C11.6134 13.3674 11.3 13.054 11.3 12.6674V5.66745C11.3 5.1976 11.1241 4.45126 10.5903 3.83343C10.0784 3.24093 9.18093 2.70078 7.60001 2.70078C6.01908 2.70078 5.12161 3.24093 4.60969 3.83343ZM2.50001 8.19336C2.35009 8.24193 2.18131 8.32872 2.02836 8.47188C1.77561 8.70845 1.50001 9.16135 1.50001 10.0408C1.50001 10.8754 1.80851 11.3177 2.13053 11.5689C2.24735 11.66 2.37349 11.7315 2.50001 11.7864V8.19336ZM12.7 11.8482V8.25523C12.8265 8.31012 12.9527 8.38161 13.0695 8.47273C13.3915 8.72391 13.7 9.16621 13.7 10.0008C13.7 10.8803 13.4244 11.3331 13.1717 11.5697C13.0187 11.7129 12.8499 11.7997 12.7 11.8482Z" fill="#B9B9B9"/>
</svg>
