<svg width="32" height="24" viewBox="0 0 32 24" fill="none" xmlns="http://www.w3.org/2000/svg">
<path fill-rule="evenodd" clip-rule="evenodd" d="M14 4.875C11.1695 4.875 8.875 7.16954 8.875 10C8.875 12.8305 11.1695 15.125 14 15.125C16.8305 15.125 19.125 12.8305 19.125 10C19.125 7.16954 16.8305 4.875 14 4.875ZM7.125 10C7.125 6.20304 10.203 3.125 14 3.125C17.797 3.125 20.875 6.20304 20.875 10C20.875 13.797 17.797 16.875 14 16.875C10.203 16.875 7.125 13.797 7.125 10Z" fill="#B9B9B9"/>
<path fill-rule="evenodd" clip-rule="evenodd" d="M18.5303 13.2324L24.6683 19.3704L23.4308 20.6078L17.2929 14.4699L18.5303 13.2324Z" fill="#B9B9B9"/>
</svg>
