<svg width="48" height="48" viewBox="0 0 48 48" fill="none" xmlns="http://www.w3.org/2000/svg">
<circle cx="24" cy="24" r="18" fill="#FFC300"/>
<path d="M15.3568 18.7344L16.6508 20.0207M19.3928 16.1947L20.0541 17.9164M32.3461 18.7344L31.0528 20.0207M28.31 16.1947L27.6495 17.9164M24.0004 15L24.0873 17.5082M14 26.8144C14 26.8144 23.4296 13.3538 34 26.8335C22.7284 40.7192 14 26.8144 14 26.8144ZM27.6295 26.9178C27.6295 28.9794 26.0047 30.6507 24.0004 30.6507C21.996 30.6507 20.3712 28.9794 20.3712 26.9178C20.3712 24.8561 21.996 23.1849 24.0004 23.1849C26.0047 23.1849 27.6295 24.8561 27.6295 26.9178Z" stroke="#222222" stroke-width="2" stroke-miterlimit="10" stroke-linecap="round"/>
</svg>
