<svg width="16" height="16" viewBox="0 0 16 16" fill="none" xmlns="http://www.w3.org/2000/svg">
<path fill-rule="evenodd" clip-rule="evenodd" d="M13.0666 4.06602H2.93331C2.82286 4.06602 2.73331 4.15556 2.73331 4.26602V10.3993C2.73331 10.5098 2.82286 10.5993 2.93331 10.5993H13.0666C13.1771 10.5993 13.2666 10.5098 13.2666 10.3993V4.26602C13.2666 4.15556 13.1771 4.06602 13.0666 4.06602ZM2.93331 2.66602C2.04966 2.66602 1.33331 3.38236 1.33331 4.26602V10.3993C1.33331 11.283 2.04966 11.9993 2.93331 11.9993H13.0666C13.9503 11.9993 14.6666 11.283 14.6666 10.3993V4.26602C14.6666 3.38236 13.9503 2.66602 13.0666 2.66602H2.93331Z" fill="#B9B9B9"/>
<path fill-rule="evenodd" clip-rule="evenodd" d="M3.09998 13.3008H12.9V14.7008H3.09998V13.3008Z" fill="#B9B9B9"/>
</svg>
